<?xml version="1.0" encoding="utf-8"?>
<!-- Generator: Adobe Illustrator 21.0.0, SVG Export Plug-In . SVG Version: 6.00 Build 0)  -->
<svg version="1.1" xmlns="http://www.w3.org/2000/svg" xmlns:xlink="http://www.w3.org/1999/xlink" x="0px" y="0px"
	 viewBox="0 0 129.3 119.2" style="enable-background:new 0 0 129.3 119.2;" xml:space="preserve">
<style type="text/css">
	.st0{fill:url(#SVGID_1_);}
	.st1{fill:url(#SVGID_2_);}
	.st2{fill:url(#SVGID_3_);}
	.st3{fill:url(#SVGID_4_);}
	.st4{fill:#FFFFFF;}
	.st5{fill:#B7813B;}
	.st6{fill:#CC9F59;}
	.st7{fill:#F3CC9B;}
	.st8{fill:#F2AD89;}
	.st9{fill:#F2AD8A;}
	.st10{fill:none;stroke:#EA957D;stroke-width:6;stroke-linecap:round;stroke-miterlimit:10;}
	.st11{fill:none;stroke:#365575;stroke-width:2;stroke-linecap:round;stroke-miterlimit:10;}
	.st12{fill:none;stroke:#CC9F59;stroke-width:6;stroke-linecap:round;stroke-miterlimit:10;}
	.st13{fill:#365575;}
	.st14{fill:#F4F7F4;}
	.st15{fill:#EEB08B;}
	.st16{opacity:0.4;fill:#F4F7F4;}
	.st17{fill:none;stroke:#958BFB;stroke-width:3;stroke-linecap:round;stroke-miterlimit:10;}
	.st18{opacity:0.4;fill:none;stroke:#F4F7F4;stroke-width:2;stroke-linecap:round;stroke-miterlimit:10;}
	.st19{opacity:0.55;}
	.st20{fill:#69E9EA;}
	.st21{opacity:0.8;}
	.st22{fill:#958BFB;}
	.st23{opacity:0.45;}
	.st24{opacity:0.75;}
	.st25{opacity:0.6;}
	.st26{opacity:0.77;fill:#958BFB;}
</style>
<g id="bg">
</g>
<g id="Layer_1">
</g>
<g id="Small_Circles">
</g>
<g id="Triangle" class="st19">
</g>
<g id="Half_Circle" class="st21">
</g>
<g id="X" class="st23">
</g>
<g id="Line" class="st24">
</g>
<g id="zig_zag" class="st25">
</g>
<g id="Layer_9">
	<g>
		<g>
			<path class="st20" d="M11,17c0-4.4,3.6-8,8-8h91.4c4.4,0,8,3.6,8,8c0,4.4-3.6,8-8,8H19C14.6,25,11,21.4,11,17z"/>
		</g>
		<g>
			<path class="st20" d="M11,59.6c0-4.4,3.6-8,8-8h91.4c4.4,0,8,3.6,8,8c0,4.4-3.6,8-8,8H19C14.6,67.6,11,64,11,59.6z"/>
		</g>
		<g>
			<path class="st20" d="M11,102.2c0-4.4,3.6-8,8-8h91.4c4.4,0,8,3.6,8,8c0,4.4-3.6,8-8,8H19C14.6,110.2,11,106.6,11,102.2z"/>
		</g>
	</g>
</g>
</svg>
